<?xml version="1.0" encoding="utf-8"?>
<!-- Generator: Adobe Illustrator 24.0.1, SVG Export Plug-In . SVG Version: 6.00 Build 0)  -->
<svg version="1.1" id="Layer_1" xmlns="http://www.w3.org/2000/svg" xmlns:xlink="http://www.w3.org/1999/xlink" x="0px" y="0px"
	 viewBox="0 0 50 50" style="enable-background:new 0 0 50 50;" xml:space="preserve">
<style type="text/css">
	.st0{fill:#E40C0A;}
</style>
<path class="st0" d="M43.62,23.85l-5.31,0l-5.09,0l-3.75,0c-1.07,0-2.13,0.17-3.17,0.51l-2.15,0.7c-0.57,0.19-1.16,0.09-1.71-0.27
	l-1.19-0.78c-2.12-1.38-4.66-1.18-6.63,0.52c-1.04,0.9-2.2,0.8-3.18-0.27l-2.58-2.79l-2.48,2.29l2.58,2.79
	c2.22,2.4,5.45,2.62,7.87,0.53c0.83-0.72,1.72-0.8,2.59-0.24l1.19,0.78c0.91,0.59,1.94,0.91,2.96,0.91c0.55,0,1.09-0.09,1.63-0.26
	l2.15-0.7c0.7-0.23,1.41-0.34,2.13-0.34l3.75,0l5.09,0l5.31,0L43.62,23.85z"/>
</svg>
