<?xml version="1.0" encoding="utf-8"?>
<!-- Generator: Adobe Illustrator 24.0.1, SVG Export Plug-In . SVG Version: 6.00 Build 0)  -->
<svg version="1.1" id="Layer_1" xmlns="http://www.w3.org/2000/svg" xmlns:xlink="http://www.w3.org/1999/xlink" x="0px" y="0px"
	 viewBox="0 0 1500 1500" style="enable-background:new 0 0 1500 1500;" xml:space="preserve">
<style type="text/css">
	.st0{fill:#E40C0A;}
</style>
<path class="st0" d="M1499.95,651.13l-213.73,0.07l-205.16-0.07l-151.05,0.05c-42.95,0.01-85.86,6.87-127.52,20.4l-86.68,28.15
	c-22.94,7.45-46.81,3.74-69.06-10.71l-48.08-31.23c-85.52-55.58-187.79-47.52-266.91,21.03c-41.78,36.19-88.51,32.25-128.23-10.79
	L99.71,555.56L0,647.77l103.81,112.46c89.33,96.76,219.6,105.52,316.79,21.32c33.43-28.96,69.44-32.35,104.15-9.79l48.08,31.23
	c36.7,23.85,77.99,36.46,119.39,36.46c22.05,0,44.07-3.52,65.48-10.47l86.68-28.14c28.11-9.13,56.94-13.77,85.68-13.77l151-0.06
	l205.16,0.07l213.78-0.08L1499.95,651.13z"/>
</svg>
