<?xml version="1.0" encoding="utf-8"?>
<!-- Generator: Adobe Illustrator 24.0.1, SVG Export Plug-In . SVG Version: 6.00 Build 0)  -->
<svg version="1.1" id="Layer_1" xmlns="http://www.w3.org/2000/svg" xmlns:xlink="http://www.w3.org/1999/xlink" x="0px" y="0px"
	 viewBox="0 0 1500 1500" style="enable-background:new 0 0 1500 1500;" xml:space="preserve">
<style type="text/css">
	.st0{fill:#E40C0A;}
</style>
<g>
	<g>
		<path d="M517.25,563.48v98.93H283.29v109.04H505.7v98.93H283.29v197.86H170.64V563.48H517.25z"/>
		<path d="M920.91,1068.23H819.09v-46.94c-27.93,35.15-62.46,52.71-103.62,52.71c-41.16,0-75.71-11.91-103.62-35.75
			c-27.93-23.82-41.88-55.6-41.88-95.32c0-39.71,14.44-69.44,43.33-89.18c28.88-19.73,68.35-29.61,118.42-29.61h80.87V822
			c0-41.39-21.91-62.1-65.71-62.1c-18.78,0-38.63,3.74-59.57,11.19c-20.94,7.47-38.63,16.73-53.08,27.8l-48.38-70.04
			c51.02-37.07,109.27-55.6,174.75-55.6c47.18,0,85.69,11.8,115.54,35.39c29.84,23.59,44.77,60.9,44.77,111.92V1068.23z
			 M811.87,920.21v-18.78h-67.88c-43.33,0-64.99,13.49-64.99,40.44c0,13.97,5.17,24.68,15.53,32.13
			c10.34,7.47,25.15,11.19,44.41,11.19c19.25,0,36.22-5.89,50.91-17.69C804.53,955.71,811.87,939.95,811.87,920.21z"/>
		<path d="M1028.86,630.28c-12.28-12.28-18.41-27.32-18.41-45.13c0-17.81,6.14-32.86,18.41-45.13
			c12.28-12.28,27.32-18.41,45.13-18.41c17.81,0,32.86,6.14,45.13,18.41c12.28,12.27,18.42,27.33,18.42,45.13
			c0,17.81-6.14,32.86-18.42,45.13c-12.28,12.27-27.33,18.41-45.13,18.41C1056.18,648.69,1041.13,642.55,1028.86,630.28z
			 M1128.15,1068.23h-108.32V679.74h108.32V1068.23z"/>
		<path d="M1339,1068.23h-108.32v-535.8H1339V1068.23z"/>
	</g>
	<path class="st0" d="M1338.96,319.05l-167.85,0.06l-161.11-0.06l-118.62,0.04c-33.73,0.01-67.42,5.4-100.15,16.02l-68.08,22.1
		c-18.01,5.85-36.76,2.94-54.24-8.41l-37.76-24.53c-67.16-43.65-147.48-37.32-209.61,16.52c-32.81,28.42-69.51,25.33-100.7-8.48
		L239.31,244L161,316.41l81.53,88.32c70.15,75.99,172.45,82.87,248.79,16.74c26.25-22.75,54.53-25.41,81.79-7.69l37.76,24.52
		c28.82,18.73,61.25,28.63,93.76,28.63c17.31,0,34.61-2.77,51.42-8.22l68.08-22.1c22.08-7.17,44.72-10.81,67.29-10.82l118.58-0.04
		l161.11,0.06l167.89-0.06L1338.96,319.05z"/>
	<g>
		<path d="M170.86,1215.4c0-23.57,18.04-40.6,42.29-40.6c12.86,0,23.91,4.62,31.24,13.19l-9.47,8.91
			c-5.75-6.2-12.86-9.24-21.09-9.24c-16.35,0-28.19,11.5-28.19,27.74c0,16.24,11.84,27.74,28.19,27.74c8.23,0,15.34-3.04,21.09-9.36
			l9.47,9.02c-7.33,8.57-18.38,13.19-31.35,13.19C188.9,1256,170.86,1238.97,170.86,1215.4z"/>
		<path d="M306.33,1224.76c0-18.04,13.53-30.79,32.03-30.79c18.72,0,32.14,12.74,32.14,30.79s-13.42,30.9-32.14,30.9
			C319.86,1255.66,306.33,1242.81,306.33,1224.76z M356.29,1224.76c0-11.5-7.67-18.83-17.93-18.83c-10.15,0-17.82,7.33-17.82,18.83
			s7.67,18.83,17.82,18.83C348.62,1243.59,356.29,1236.27,356.29,1224.76z"/>
		<path d="M499.76,1220.37v34.5h-14.1v-32.7c0-10.71-5.3-15.9-14.32-15.9c-10.04,0-16.8,6.09-16.8,18.15v30.45h-14.1v-60.22h13.42
			v7.78c4.63-5.53,11.96-8.46,20.75-8.46C489.05,1193.98,499.76,1202.21,499.76,1220.37z"/>
		<path d="M589.67,1191.5v3.61h16.58v11.27h-16.13v48.49h-14.1v-48.49h-9.93v-11.27h9.93v-3.83c0-12.63,7.56-20.86,21.54-20.86
			c4.85,0,9.59,1.01,12.74,3.27l-3.95,10.61c-2.14-1.47-4.85-2.48-7.78-2.48C592.72,1181.79,589.67,1185.07,589.67,1191.5z"/>
		<path d="M727.61,1229.27h-47.25c1.69,8.79,9.02,14.43,19.51,14.43c6.77,0,12.07-2.14,16.35-6.55l7.56,8.68
			c-5.41,6.43-13.87,9.81-24.25,9.81c-20.19,0-33.27-12.97-33.27-30.9c0-17.93,13.19-30.79,31.12-30.79
			c17.59,0,30.45,12.29,30.45,31.12C727.84,1226.23,727.73,1227.92,727.61,1229.27z M680.25,1219.91h34.17
			c-1.13-8.68-7.78-14.66-17.03-14.66C688.25,1205.25,681.6,1211.12,680.25,1219.91z"/>
		<path d="M832.63,1193.98v13.42c-1.24-0.23-2.26-0.34-3.27-0.34c-10.71,0-17.48,6.32-17.48,18.61v29.2h-14.1v-60.22h13.42v8.79
			C815.27,1197.13,822.6,1193.98,832.63,1193.98z"/>
		<path d="M956.82,1229.27h-47.25c1.69,8.79,9.02,14.43,19.51,14.43c6.77,0,12.07-2.14,16.35-6.55l7.56,8.68
			c-5.41,6.43-13.87,9.81-24.25,9.81c-20.19,0-33.27-12.97-33.27-30.9c0-17.93,13.19-30.79,31.12-30.79
			c17.59,0,30.45,12.29,30.45,31.12C957.04,1226.23,956.93,1227.92,956.82,1229.27z M909.45,1219.91h34.17
			c-1.13-8.68-7.78-14.66-17.03-14.66C917.46,1205.25,910.81,1211.12,909.45,1219.91z"/>
		<path d="M1086.31,1220.37v34.5h-14.1v-32.7c0-10.71-5.3-15.9-14.32-15.9c-10.04,0-16.8,6.09-16.8,18.15v30.45h-14.1v-60.22h13.42
			v7.78c4.63-5.53,11.96-8.46,20.75-8.46C1075.6,1193.98,1086.31,1202.21,1086.31,1220.37z"/>
		<path d="M1156.26,1224.76c0-18.04,13.53-30.79,32.59-30.79c11.73,0,21.09,4.85,25.71,13.98l-10.83,6.31
			c-3.61-5.75-9.02-8.34-15-8.34c-10.38,0-18.27,7.22-18.27,18.83c0,11.73,7.89,18.83,18.27,18.83c5.97,0,11.39-2.59,15-8.35
			l10.83,6.32c-4.62,9.02-13.98,14.09-25.71,14.09C1169.79,1255.66,1156.26,1242.81,1156.26,1224.76z"/>
		<path d="M1338.64,1229.27h-47.25c1.69,8.79,9.02,14.43,19.51,14.43c6.77,0,12.07-2.14,16.35-6.55l7.56,8.68
			c-5.41,6.43-13.87,9.81-24.25,9.81c-20.19,0-33.27-12.97-33.27-30.9c0-17.93,13.19-30.79,31.12-30.79
			c17.59,0,30.45,12.29,30.45,31.12C1338.86,1226.23,1338.75,1227.92,1338.64,1229.27z M1291.27,1219.91h34.17
			c-1.13-8.68-7.78-14.66-17.03-14.66C1299.28,1205.25,1292.63,1211.12,1291.27,1219.91z"/>
	</g>
</g>
</svg>
