<?xml version="1.0" encoding="utf-8"?>
<!-- Generator: Adobe Illustrator 24.0.1, SVG Export Plug-In . SVG Version: 6.00 Build 0)  -->
<svg version="1.1" id="Layer_1" xmlns="http://www.w3.org/2000/svg" xmlns:xlink="http://www.w3.org/1999/xlink" x="0px" y="0px"
	 viewBox="0 0 50 50" style="enable-background:new 0 0 50 50;" xml:space="preserve">
<style type="text/css">
	.st0{fill:#E40C0A;}
</style>
<g>
	<g>
		<path d="M17.64,19.1v3.13h-7.4v3.45h7.03v3.13h-7.03v6.26H6.68V19.1H17.64z"/>
		<path d="M30.4,35.06h-3.22v-1.48c-0.88,1.11-1.98,1.67-3.28,1.67c-1.3,0-2.39-0.38-3.28-1.13c-0.88-0.75-1.32-1.76-1.32-3.01
			s0.46-2.2,1.37-2.82c0.91-0.62,2.16-0.94,3.74-0.94h2.56v-0.07c0-1.31-0.69-1.96-2.08-1.96c-0.59,0-1.22,0.12-1.88,0.35
			c-0.66,0.24-1.22,0.53-1.68,0.88l-1.53-2.21c1.61-1.17,3.46-1.76,5.53-1.76c1.49,0,2.71,0.37,3.65,1.12
			c0.94,0.75,1.42,1.93,1.42,3.54V35.06z M26.96,30.38v-0.59h-2.15c-1.37,0-2.05,0.43-2.05,1.28c0,0.44,0.16,0.78,0.49,1.02
			c0.33,0.24,0.8,0.35,1.4,0.35c0.61,0,1.15-0.19,1.61-0.56C26.72,31.5,26.96,31.01,26.96,30.38z"/>
		<path d="M33.82,21.21c-0.39-0.39-0.58-0.86-0.58-1.43c0-0.56,0.19-1.04,0.58-1.43c0.39-0.39,0.86-0.58,1.43-0.58
			c0.56,0,1.04,0.19,1.43,0.58c0.39,0.39,0.58,0.86,0.58,1.43c0,0.56-0.19,1.04-0.58,1.43c-0.39,0.39-0.86,0.58-1.43,0.58
			C34.68,21.8,34.21,21.6,33.82,21.21z M36.96,35.06h-3.42V22.78h3.42V35.06z"/>
		<path d="M43.62,35.06H40.2V18.12h3.43V35.06z"/>
	</g>
	<path class="st0" d="M43.62,11.37l-5.31,0l-5.09,0l-3.75,0c-1.07,0-2.13,0.17-3.17,0.51l-2.15,0.7c-0.57,0.19-1.16,0.09-1.71-0.27
		l-1.19-0.78c-2.12-1.38-4.66-1.18-6.63,0.52c-1.04,0.9-2.2,0.8-3.18-0.27L8.85,9l-2.48,2.29l2.58,2.79
		c2.22,2.4,5.45,2.62,7.87,0.53c0.83-0.72,1.72-0.8,2.59-0.24l1.19,0.78c0.91,0.59,1.94,0.91,2.96,0.91c0.55,0,1.09-0.09,1.63-0.26
		l2.15-0.7c0.7-0.23,1.41-0.34,2.13-0.34l3.75,0l5.09,0l5.31,0L43.62,11.37z"/>
	<g>
		<path d="M6.69,39.72c0-0.75,0.57-1.28,1.34-1.28c0.41,0,0.76,0.15,0.99,0.42l-0.3,0.28c-0.18-0.2-0.41-0.29-0.67-0.29
			c-0.52,0-0.89,0.36-0.89,0.88c0,0.51,0.37,0.88,0.89,0.88c0.26,0,0.48-0.1,0.67-0.3l0.3,0.29C8.78,40.85,8.43,41,8.02,41
			C7.26,41,6.69,40.46,6.69,39.72z"/>
		<path d="M10.97,40.01c0-0.57,0.43-0.97,1.01-0.97c0.59,0,1.02,0.4,1.02,0.97c0,0.57-0.42,0.98-1.02,0.98
			C11.4,40.99,10.97,40.58,10.97,40.01z M12.55,40.01c0-0.36-0.24-0.6-0.57-0.6c-0.32,0-0.56,0.23-0.56,0.6
			c0,0.36,0.24,0.6,0.56,0.6C12.31,40.61,12.55,40.38,12.55,40.01z"/>
		<path d="M17.09,39.87v1.09h-0.45v-1.03c0-0.34-0.17-0.5-0.45-0.5c-0.32,0-0.53,0.19-0.53,0.57v0.96h-0.45v-1.9h0.42v0.25
			c0.15-0.17,0.38-0.27,0.66-0.27C16.75,39.04,17.09,39.3,17.09,39.87z"/>
		<path d="M19.93,38.96v0.11h0.52v0.36h-0.51v1.53H19.5v-1.53h-0.31v-0.36h0.31v-0.12c0-0.4,0.24-0.66,0.68-0.66
			c0.15,0,0.3,0.03,0.4,0.1l-0.12,0.34c-0.07-0.05-0.15-0.08-0.25-0.08C20.03,38.65,19.93,38.76,19.93,38.96z"/>
		<path d="M24.29,40.15H22.8c0.05,0.28,0.29,0.46,0.62,0.46c0.21,0,0.38-0.07,0.52-0.21l0.24,0.27c-0.17,0.2-0.44,0.31-0.77,0.31
			c-0.64,0-1.05-0.41-1.05-0.98c0-0.57,0.42-0.97,0.98-0.97c0.56,0,0.96,0.39,0.96,0.98C24.3,40.06,24.3,40.11,24.29,40.15z
			 M22.79,39.86h1.08c-0.04-0.27-0.25-0.46-0.54-0.46C23.05,39.4,22.84,39.58,22.79,39.86z"/>
		<path d="M27.61,39.04v0.42c-0.04-0.01-0.07-0.01-0.1-0.01c-0.34,0-0.55,0.2-0.55,0.59v0.92h-0.45v-1.9h0.42v0.28
			C27.06,39.14,27.3,39.04,27.61,39.04z"/>
		<path d="M31.54,40.15h-1.49c0.05,0.28,0.29,0.46,0.62,0.46c0.21,0,0.38-0.07,0.52-0.21l0.24,0.27c-0.17,0.2-0.44,0.31-0.77,0.31
			c-0.64,0-1.05-0.41-1.05-0.98c0-0.57,0.42-0.97,0.98-0.97c0.56,0,0.96,0.39,0.96,0.98C31.55,40.06,31.54,40.11,31.54,40.15z
			 M30.04,39.86h1.08c-0.04-0.27-0.25-0.46-0.54-0.46C30.3,39.4,30.08,39.58,30.04,39.86z"/>
		<path d="M35.63,39.87v1.09h-0.45v-1.03c0-0.34-0.17-0.5-0.45-0.5c-0.32,0-0.53,0.19-0.53,0.57v0.96h-0.45v-1.9h0.42v0.25
			c0.15-0.17,0.38-0.27,0.66-0.27C35.3,39.04,35.63,39.3,35.63,39.87z"/>
		<path d="M37.85,40.01c0-0.57,0.43-0.97,1.03-0.97c0.37,0,0.67,0.15,0.81,0.44l-0.34,0.2c-0.11-0.18-0.29-0.26-0.47-0.26
			c-0.33,0-0.58,0.23-0.58,0.6c0,0.37,0.25,0.6,0.58,0.6c0.19,0,0.36-0.08,0.47-0.26l0.34,0.2c-0.15,0.29-0.44,0.45-0.81,0.45
			C38.27,40.99,37.85,40.58,37.85,40.01z"/>
		<path d="M43.61,40.15h-1.49c0.05,0.28,0.29,0.46,0.62,0.46c0.21,0,0.38-0.07,0.52-0.21l0.24,0.27c-0.17,0.2-0.44,0.31-0.77,0.31
			c-0.64,0-1.05-0.41-1.05-0.98c0-0.57,0.42-0.97,0.98-0.97c0.56,0,0.96,0.39,0.96,0.98C43.62,40.06,43.62,40.11,43.61,40.15z
			 M42.12,39.86h1.08c-0.04-0.27-0.25-0.46-0.54-0.46C42.37,39.4,42.16,39.58,42.12,39.86z"/>
	</g>
</g>
</svg>
