<svg width="50" height="50" viewBox="0 0 50 50" fill="none" xmlns="http://www.w3.org/2000/svg">
<rect width="50" height="50" rx="12" fill="url(#paint0_linear_362_80)"/>
<path d="M34.4 34.165C34.68 34.585 34.82 34.9933 34.82 35.39C34.82 35.9267 34.5983 36.37 34.155 36.72C33.735 37.07 33.2333 37.245 32.65 37.245C32.2767 37.245 31.915 37.1633 31.565 37C31.2383 36.8133 30.9583 36.545 30.725 36.195L26.07 29.125C25.6033 28.3783 25.1017 27.8533 24.565 27.55C24.0517 27.2467 23.375 27.095 22.535 27.095H19.105V34.935C19.105 35.635 18.9067 36.195 18.51 36.615C18.1133 37.0117 17.5767 37.21 16.9 37.21C16.2233 37.21 15.675 37.0117 15.255 36.615C14.8583 36.195 14.66 35.635 14.66 34.935V14.46C14.66 13.7833 14.8467 13.2583 15.22 12.885C15.6167 12.5117 16.1533 12.325 16.83 12.325H25.58C28.38 12.325 30.5033 12.955 31.95 14.215C33.42 15.4517 34.155 17.2483 34.155 19.605C34.155 21.5183 33.6067 23.0933 32.51 24.33C31.4367 25.5433 29.9083 26.325 27.925 26.675C28.6017 26.8383 29.1967 27.13 29.71 27.55C30.2233 27.97 30.725 28.5533 31.215 29.3L34.4 34.165ZM24.95 23.63C26.6533 23.63 27.9017 23.315 28.695 22.685C29.4883 22.0317 29.885 21.04 29.885 19.71C29.885 18.3567 29.4883 17.3767 28.695 16.77C27.9017 16.14 26.6533 15.825 24.95 15.825H19.07V23.63H24.95Z" fill="white"/>
<defs>
<linearGradient id="paint0_linear_362_80" x1="4.04716e-07" y1="39.5" x2="50" y2="0" gradientUnits="userSpaceOnUse">
<stop stop-color="#423BAA"/>
<stop offset="1" stop-color="#2568B0"/>
</linearGradient>
</defs>
</svg>
